<svg xmlns="http://www.w3.org/2000/svg" viewBox="0 0 458.55 82.72"><defs><style>.cls-1{fill:#286ca6;}.cls-2{fill:#5b9ed9;}.cls-3{fill:#1761a0;}.cls-4{fill:#fff;}</style></defs><g id="Layer_2" data-name="Layer 2"><path class="cls-1" d="M38.61,5.62c-8.75,16.29-19.1,31.1-9.3,49.16l-5.69,4.54C13.12,42.25,20.55,12.92,38.61,5.62Z"/><path class="cls-2" d="M42.34,77.1c1.45-2.67,2.87-5.36,4.35-8,6-10.79,10.43-21.71,6.05-34.49-.86-2.5,1-5.92,1.87-10.39C67.63,40.39,60.71,70.29,42.34,77.1Z"/><circle class="cls-3" cx="431.25" cy="41.36" r="8.49"/><path class="cls-4" d="M165.36,24.13c.89.16,1.33.58,1.33,1.28V62.62a1,1,0,0,1-.54.85,2.06,2.06,0,0,1-1.2.38,2.21,2.21,0,0,1-1.29-.38,1,1,0,0,1-.54-.85V30.85l-23,32.3a1.8,1.8,0,0,1-.71.47,2.75,2.75,0,0,1-1,.17,3.43,3.43,0,0,1-1-.14,1,1,0,0,1-.62-.5L113.78,30.91V62.62a1.07,1.07,0,0,1-.5.85,2,2,0,0,1-1.25.38,2.29,2.29,0,0,1-1.25-.38,1.05,1.05,0,0,1-.58-.85V25.41c0-.73.47-1.16,1.42-1.28a1.9,1.9,0,0,1,2,.7l24.84,34.93,24.84-34.93a1.46,1.46,0,0,1,.87-.61A2.27,2.27,0,0,1,165.36,24.13Z"/><path class="cls-4" d="M219.32,24.51a1,1,0,0,1,.62.85,1.05,1.05,0,0,1-.62.9,2.36,2.36,0,0,1-1.29.38H200.75V62.57a1.07,1.07,0,0,1-.49.93,2.17,2.17,0,0,1-1.25.35c-1.22,0-1.83-.43-1.83-1.28V26.64H179.9a1.93,1.93,0,0,1-1.24-.38,1.08,1.08,0,0,1-.5-.9,1.06,1.06,0,0,1,.5-.85,2,2,0,0,1,1.24-.38H218A2.45,2.45,0,0,1,219.32,24.51Z"/><path class="cls-4" d="M234.31,26.64V42.76h25.43a2.29,2.29,0,0,1,1.37.35,1.09,1.09,0,0,1,.45.88,1.17,1.17,0,0,1-.45.91,2.15,2.15,0,0,1-1.37.37H234.31V61.34h30.08c1.21,0,1.82.43,1.82,1.28a1.05,1.05,0,0,1-.49.85,2.18,2.18,0,0,1-1.33.38H232.57a2.11,2.11,0,0,1-1.37-.38,1.07,1.07,0,0,1-.46-.85V25.41c0-.85.61-1.28,1.83-1.28h31.82c1.21,0,1.82.43,1.82,1.28a1,1,0,0,1-.49.88,2.32,2.32,0,0,1-1.33.35Z"/><path class="cls-4" d="M290.39,27.37a16.1,16.1,0,0,0-4.49,2.13,10.94,10.94,0,0,0-3,3.16,7.17,7.17,0,0,0-1.12,3.85v14.9a7.15,7.15,0,0,0,1.12,3.85,10.94,10.94,0,0,0,3,3.16,16.1,16.1,0,0,0,4.49,2.13,18.43,18.43,0,0,0,5.48.79h10.55a18.07,18.07,0,0,0,5.44-.79,16.25,16.25,0,0,0,4.45-2.13,10.94,10.94,0,0,0,3-3.16,7.15,7.15,0,0,0,1.12-3.85c0-.86.62-1.29,1.87-1.29a2.15,2.15,0,0,1,1.18.35,1.09,1.09,0,0,1,.52.94,8.93,8.93,0,0,1-1.41,4.82,13.81,13.81,0,0,1-3.81,3.94,19.8,19.8,0,0,1-5.6,2.69,23,23,0,0,1-6.84,1H295.84a23.36,23.36,0,0,1-6.88-1,19.66,19.66,0,0,1-5.64-2.69,13.15,13.15,0,0,1-3.77-3.94,9.06,9.06,0,0,1-1.37-4.82V36.51a9.06,9.06,0,0,1,1.37-4.82,13.26,13.26,0,0,1,3.77-3.94A19.93,19.93,0,0,1,289,25.06a23.36,23.36,0,0,1,6.88-1h10.53a23,23,0,0,1,6.84,1,20.07,20.07,0,0,1,5.6,2.69,13.94,13.94,0,0,1,3.81,3.94A8.93,8.93,0,0,1,324,36.51a1.12,1.12,0,0,1-.52.88,1.92,1.92,0,0,1-1.18.41,2.08,2.08,0,0,1-1.38-.41,1.13,1.13,0,0,1-.49-.88,7.17,7.17,0,0,0-1.12-3.85,10.94,10.94,0,0,0-3-3.16,16.25,16.25,0,0,0-4.45-2.13,18.39,18.39,0,0,0-5.44-.79H295.87A18.76,18.76,0,0,0,290.39,27.37Z"/><path class="cls-4" d="M375.79,24.13c1.22,0,1.83.43,1.83,1.28V62.62a1.1,1.1,0,0,1-.46.85,2.13,2.13,0,0,1-1.37.38,2.07,2.07,0,0,1-1.21-.38,1,1,0,0,1-.54-.85V45.27H340.57V62.62a1.07,1.07,0,0,1-.5.85,2,2,0,0,1-1.25.38,2.16,2.16,0,0,1-1.33-.38,1.07,1.07,0,0,1-.5-.85V25.41c0-.85.61-1.28,1.83-1.28a2.17,2.17,0,0,1,1.25.35,1.1,1.1,0,0,1,.5.93V42.76H374V25.41a1.07,1.07,0,0,1,.54-.93A2.2,2.2,0,0,1,375.79,24.13Z"/></g></svg>